<mxfile host="app.diagrams.net" modified="2021-04-08T08:34:12.611Z" agent="5.0 (Macintosh; Intel Mac OS X 11_0_1) AppleWebKit/537.36 (KHTML, like Gecko) Chrome/89.0.4389.114 Safari/537.36" etag="s6C6PvAUX6yjLCAa_F_x" version="14.5.8" type="github">
  <diagram id="C5RBs43oDa-KdzZeNtuy" name="Page-1">
    <mxGraphModel dx="1800" dy="684" grid="1" gridSize="10" guides="1" tooltips="1" connect="1" arrows="1" fold="1" page="1" pageScale="1" pageWidth="827" pageHeight="1169" math="0" shadow="0">
      <root>
        <mxCell id="WIyWlLk6GJQsqaUBKTNV-0" />
        <mxCell id="WIyWlLk6GJQsqaUBKTNV-1" parent="WIyWlLk6GJQsqaUBKTNV-0" />
        <mxCell id="g48fNDkBXVpFaVi7_BF4-2" value="主播" style="rounded=1;whiteSpace=wrap;html=1;arcSize=18;" vertex="1" parent="WIyWlLk6GJQsqaUBKTNV-1">
          <mxGeometry x="80" y="400" width="120" height="50" as="geometry" />
        </mxCell>
        <mxCell id="g48fNDkBXVpFaVi7_BF4-7" value="请求create_live接口&lt;br&gt;根据roomid创建rtc房间和rtm房间" style="rounded=1;whiteSpace=wrap;html=1;" vertex="1" parent="WIyWlLk6GJQsqaUBKTNV-1">
          <mxGeometry x="294" y="395" width="120" height="60" as="geometry" />
        </mxCell>
        <mxCell id="g48fNDkBXVpFaVi7_BF4-8" value="" style="endArrow=classic;html=1;exitX=1;exitY=0.5;exitDx=0;exitDy=0;entryX=0;entryY=0.5;entryDx=0;entryDy=0;" edge="1" parent="WIyWlLk6GJQsqaUBKTNV-1" source="g48fNDkBXVpFaVi7_BF4-2" target="g48fNDkBXVpFaVi7_BF4-7">
          <mxGeometry width="50" height="50" relative="1" as="geometry">
            <mxPoint x="320" y="370" as="sourcePoint" />
            <mxPoint x="370" y="320" as="targetPoint" />
          </mxGeometry>
        </mxCell>
        <mxCell id="g48fNDkBXVpFaVi7_BF4-9" value="开播" style="text;html=1;align=center;verticalAlign=middle;resizable=0;points=[];autosize=1;strokeColor=none;" vertex="1" parent="WIyWlLk6GJQsqaUBKTNV-1">
          <mxGeometry x="230" y="400" width="40" height="20" as="geometry" />
        </mxCell>
        <mxCell id="g48fNDkBXVpFaVi7_BF4-10" value="开始直播" style="rounded=1;whiteSpace=wrap;html=1;" vertex="1" parent="WIyWlLk6GJQsqaUBKTNV-1">
          <mxGeometry x="500" y="395" width="120" height="60" as="geometry" />
        </mxCell>
        <mxCell id="g48fNDkBXVpFaVi7_BF4-11" value="" style="endArrow=classic;html=1;exitX=1;exitY=0.5;exitDx=0;exitDy=0;entryX=0;entryY=0.5;entryDx=0;entryDy=0;" edge="1" parent="WIyWlLk6GJQsqaUBKTNV-1" source="g48fNDkBXVpFaVi7_BF4-7" target="g48fNDkBXVpFaVi7_BF4-10">
          <mxGeometry width="50" height="50" relative="1" as="geometry">
            <mxPoint x="470" y="480" as="sourcePoint" />
            <mxPoint x="520" y="430" as="targetPoint" />
          </mxGeometry>
        </mxCell>
        <mxCell id="g48fNDkBXVpFaVi7_BF4-12" value="接口请求成功" style="text;html=1;align=center;verticalAlign=middle;resizable=0;points=[];autosize=1;strokeColor=none;" vertex="1" parent="WIyWlLk6GJQsqaUBKTNV-1">
          <mxGeometry x="410" y="400" width="90" height="20" as="geometry" />
        </mxCell>
        <mxCell id="g48fNDkBXVpFaVi7_BF4-13" value="观看正在直播的直播间" style="rounded=1;whiteSpace=wrap;html=1;" vertex="1" parent="WIyWlLk6GJQsqaUBKTNV-1">
          <mxGeometry x="294" y="280" width="120" height="60" as="geometry" />
        </mxCell>
        <mxCell id="g48fNDkBXVpFaVi7_BF4-14" value="" style="endArrow=classic;html=1;exitX=0.5;exitY=0;exitDx=0;exitDy=0;entryX=0.5;entryY=1;entryDx=0;entryDy=0;" edge="1" parent="WIyWlLk6GJQsqaUBKTNV-1" source="g48fNDkBXVpFaVi7_BF4-7" target="g48fNDkBXVpFaVi7_BF4-13">
          <mxGeometry width="50" height="50" relative="1" as="geometry">
            <mxPoint x="350" y="390" as="sourcePoint" />
            <mxPoint x="400" y="340" as="targetPoint" />
          </mxGeometry>
        </mxCell>
        <mxCell id="g48fNDkBXVpFaVi7_BF4-15" value="接口失败" style="text;html=1;align=center;verticalAlign=middle;resizable=0;points=[];autosize=1;strokeColor=none;" vertex="1" parent="WIyWlLk6GJQsqaUBKTNV-1">
          <mxGeometry x="354" y="360" width="60" height="20" as="geometry" />
        </mxCell>
        <mxCell id="g48fNDkBXVpFaVi7_BF4-16" value="退出房间&amp;nbsp; &amp;nbsp;请求结算接口 弹出结算页面" style="rounded=1;whiteSpace=wrap;html=1;" vertex="1" parent="WIyWlLk6GJQsqaUBKTNV-1">
          <mxGeometry x="730" y="395" width="120" height="60" as="geometry" />
        </mxCell>
        <mxCell id="g48fNDkBXVpFaVi7_BF4-17" value="" style="endArrow=classic;html=1;exitX=1;exitY=0.5;exitDx=0;exitDy=0;entryX=0;entryY=0.5;entryDx=0;entryDy=0;" edge="1" parent="WIyWlLk6GJQsqaUBKTNV-1" source="g48fNDkBXVpFaVi7_BF4-10" target="g48fNDkBXVpFaVi7_BF4-16">
          <mxGeometry width="50" height="50" relative="1" as="geometry">
            <mxPoint x="510" y="470" as="sourcePoint" />
            <mxPoint x="560" y="420" as="targetPoint" />
          </mxGeometry>
        </mxCell>
        <mxCell id="g48fNDkBXVpFaVi7_BF4-18" value="停播" style="text;html=1;align=center;verticalAlign=middle;resizable=0;points=[];autosize=1;strokeColor=none;" vertex="1" parent="WIyWlLk6GJQsqaUBKTNV-1">
          <mxGeometry x="640" y="400" width="40" height="20" as="geometry" />
        </mxCell>
        <mxCell id="g48fNDkBXVpFaVi7_BF4-19" value="请求get_achor_status接口&lt;br&gt;roomuserstatus是否为2？" style="rounded=1;whiteSpace=wrap;html=1;" vertex="1" parent="WIyWlLk6GJQsqaUBKTNV-1">
          <mxGeometry x="500" y="560" width="120" height="60" as="geometry" />
        </mxCell>
        <mxCell id="g48fNDkBXVpFaVi7_BF4-22" value="" style="endArrow=classic;html=1;exitX=0.5;exitY=1;exitDx=0;exitDy=0;entryX=0.5;entryY=0;entryDx=0;entryDy=0;" edge="1" parent="WIyWlLk6GJQsqaUBKTNV-1" source="g48fNDkBXVpFaVi7_BF4-10" target="g48fNDkBXVpFaVi7_BF4-19">
          <mxGeometry width="50" height="50" relative="1" as="geometry">
            <mxPoint x="510" y="530" as="sourcePoint" />
            <mxPoint x="560" y="480" as="targetPoint" />
            <Array as="points" />
          </mxGeometry>
        </mxCell>
        <mxCell id="g48fNDkBXVpFaVi7_BF4-23" value="暂离" style="text;html=1;align=center;verticalAlign=middle;resizable=0;points=[];autosize=1;strokeColor=none;" vertex="1" parent="WIyWlLk6GJQsqaUBKTNV-1">
          <mxGeometry x="520" y="490" width="40" height="20" as="geometry" />
        </mxCell>
        <mxCell id="g48fNDkBXVpFaVi7_BF4-24" value="弹出重连页面&lt;br&gt;点击重连请求&lt;br&gt;change_admin_status接口code是否为0" style="rounded=1;whiteSpace=wrap;html=1;" vertex="1" parent="WIyWlLk6GJQsqaUBKTNV-1">
          <mxGeometry x="500" y="680" width="130" height="80" as="geometry" />
        </mxCell>
        <mxCell id="g48fNDkBXVpFaVi7_BF4-25" value="" style="endArrow=classic;html=1;exitX=0.5;exitY=1;exitDx=0;exitDy=0;" edge="1" parent="WIyWlLk6GJQsqaUBKTNV-1" source="g48fNDkBXVpFaVi7_BF4-19">
          <mxGeometry width="50" height="50" relative="1" as="geometry">
            <mxPoint x="540" y="770" as="sourcePoint" />
            <mxPoint x="557" y="680" as="targetPoint" />
          </mxGeometry>
        </mxCell>
        <mxCell id="g48fNDkBXVpFaVi7_BF4-26" value="是" style="text;html=1;align=center;verticalAlign=middle;resizable=0;points=[];autosize=1;strokeColor=none;" vertex="1" parent="WIyWlLk6GJQsqaUBKTNV-1">
          <mxGeometry x="565" y="640" width="30" height="20" as="geometry" />
        </mxCell>
        <mxCell id="g48fNDkBXVpFaVi7_BF4-27" value="重新进入rtm 及rtc房间&lt;br&gt;广播rtm 刷新房间消息" style="rounded=1;whiteSpace=wrap;html=1;" vertex="1" parent="WIyWlLk6GJQsqaUBKTNV-1">
          <mxGeometry x="730" y="690" width="120" height="60" as="geometry" />
        </mxCell>
        <mxCell id="g48fNDkBXVpFaVi7_BF4-28" value="" style="endArrow=classic;html=1;entryX=0;entryY=0.5;entryDx=0;entryDy=0;" edge="1" parent="WIyWlLk6GJQsqaUBKTNV-1" target="g48fNDkBXVpFaVi7_BF4-27">
          <mxGeometry width="50" height="50" relative="1" as="geometry">
            <mxPoint x="630" y="720" as="sourcePoint" />
            <mxPoint x="810" y="720" as="targetPoint" />
          </mxGeometry>
        </mxCell>
        <mxCell id="g48fNDkBXVpFaVi7_BF4-29" value="" style="endArrow=classic;html=1;exitX=0.142;exitY=0.017;exitDx=0;exitDy=0;exitPerimeter=0;entryX=1;entryY=1;entryDx=0;entryDy=0;" edge="1" parent="WIyWlLk6GJQsqaUBKTNV-1" source="g48fNDkBXVpFaVi7_BF4-27" target="g48fNDkBXVpFaVi7_BF4-10">
          <mxGeometry width="50" height="50" relative="1" as="geometry">
            <mxPoint x="520" y="710" as="sourcePoint" />
            <mxPoint x="570" y="660" as="targetPoint" />
            <Array as="points" />
          </mxGeometry>
        </mxCell>
        <mxCell id="g48fNDkBXVpFaVi7_BF4-30" style="edgeStyle=none;rounded=0;orthogonalLoop=1;jettySize=auto;html=1;entryX=0.75;entryY=0;entryDx=0;entryDy=0;" edge="1" parent="WIyWlLk6GJQsqaUBKTNV-1" source="g48fNDkBXVpFaVi7_BF4-24" target="g48fNDkBXVpFaVi7_BF4-24">
          <mxGeometry relative="1" as="geometry" />
        </mxCell>
        <mxCell id="g48fNDkBXVpFaVi7_BF4-32" value="重新开播" style="text;html=1;align=center;verticalAlign=middle;resizable=0;points=[];autosize=1;strokeColor=none;" vertex="1" parent="WIyWlLk6GJQsqaUBKTNV-1">
          <mxGeometry x="680" y="564.5" width="60" height="20" as="geometry" />
        </mxCell>
        <mxCell id="g48fNDkBXVpFaVi7_BF4-33" value="进入直播页面观看其他主播直播" style="rounded=1;whiteSpace=wrap;html=1;" vertex="1" parent="WIyWlLk6GJQsqaUBKTNV-1">
          <mxGeometry x="324" y="690" width="120" height="60" as="geometry" />
        </mxCell>
        <mxCell id="g48fNDkBXVpFaVi7_BF4-34" value="" style="endArrow=classic;html=1;exitX=0;exitY=0.625;exitDx=0;exitDy=0;entryX=1;entryY=0.65;entryDx=0;entryDy=0;exitPerimeter=0;entryPerimeter=0;" edge="1" parent="WIyWlLk6GJQsqaUBKTNV-1" source="g48fNDkBXVpFaVi7_BF4-24" target="g48fNDkBXVpFaVi7_BF4-33">
          <mxGeometry width="50" height="50" relative="1" as="geometry">
            <mxPoint x="630" y="850" as="sourcePoint" />
            <mxPoint x="680" y="800" as="targetPoint" />
          </mxGeometry>
        </mxCell>
        <mxCell id="g48fNDkBXVpFaVi7_BF4-35" value="否" style="text;html=1;align=center;verticalAlign=middle;resizable=0;points=[];autosize=1;strokeColor=none;" vertex="1" parent="WIyWlLk6GJQsqaUBKTNV-1">
          <mxGeometry x="450" y="710" width="30" height="20" as="geometry" />
        </mxCell>
        <mxCell id="g48fNDkBXVpFaVi7_BF4-37" value="是" style="text;html=1;align=center;verticalAlign=middle;resizable=0;points=[];autosize=1;strokeColor=none;" vertex="1" parent="WIyWlLk6GJQsqaUBKTNV-1">
          <mxGeometry x="670" y="700" width="30" height="20" as="geometry" />
        </mxCell>
        <mxCell id="g48fNDkBXVpFaVi7_BF4-38" value="观众" style="rounded=1;whiteSpace=wrap;html=1;" vertex="1" parent="WIyWlLk6GJQsqaUBKTNV-1">
          <mxGeometry x="-6" y="1130" width="120" height="60" as="geometry" />
        </mxCell>
        <mxCell id="g48fNDkBXVpFaVi7_BF4-39" value="观看直播" style="rounded=1;whiteSpace=wrap;html=1;" vertex="1" parent="WIyWlLk6GJQsqaUBKTNV-1">
          <mxGeometry x="214" y="1130" width="120" height="60" as="geometry" />
        </mxCell>
        <mxCell id="g48fNDkBXVpFaVi7_BF4-40" value="" style="endArrow=classic;html=1;exitX=1;exitY=0.5;exitDx=0;exitDy=0;entryX=0;entryY=0.5;entryDx=0;entryDy=0;" edge="1" parent="WIyWlLk6GJQsqaUBKTNV-1" source="g48fNDkBXVpFaVi7_BF4-38" target="g48fNDkBXVpFaVi7_BF4-39">
          <mxGeometry width="50" height="50" relative="1" as="geometry">
            <mxPoint x="334" y="1000" as="sourcePoint" />
            <mxPoint x="384" y="950" as="targetPoint" />
          </mxGeometry>
        </mxCell>
        <mxCell id="g48fNDkBXVpFaVi7_BF4-41" value="进入直播间" style="text;html=1;strokeColor=none;fillColor=none;align=center;verticalAlign=middle;whiteSpace=wrap;rounded=0;" vertex="1" parent="WIyWlLk6GJQsqaUBKTNV-1">
          <mxGeometry x="134" y="1140" width="40" height="20" as="geometry" />
        </mxCell>
        <mxCell id="g48fNDkBXVpFaVi7_BF4-42" value="显示主播暂离页面" style="rounded=1;whiteSpace=wrap;html=1;" vertex="1" parent="WIyWlLk6GJQsqaUBKTNV-1">
          <mxGeometry x="404" y="1130" width="120" height="60" as="geometry" />
        </mxCell>
        <mxCell id="g48fNDkBXVpFaVi7_BF4-43" value="" style="endArrow=classic;html=1;exitX=1;exitY=0.5;exitDx=0;exitDy=0;entryX=0;entryY=0.5;entryDx=0;entryDy=0;" edge="1" parent="WIyWlLk6GJQsqaUBKTNV-1" source="g48fNDkBXVpFaVi7_BF4-39" target="g48fNDkBXVpFaVi7_BF4-42">
          <mxGeometry width="50" height="50" relative="1" as="geometry">
            <mxPoint x="344" y="1200" as="sourcePoint" />
            <mxPoint x="394" y="1150" as="targetPoint" />
          </mxGeometry>
        </mxCell>
        <mxCell id="g48fNDkBXVpFaVi7_BF4-44" value="主播暂离" style="text;html=1;align=center;verticalAlign=middle;resizable=0;points=[];autosize=1;strokeColor=none;" vertex="1" parent="WIyWlLk6GJQsqaUBKTNV-1">
          <mxGeometry x="334" y="1130" width="60" height="20" as="geometry" />
        </mxCell>
        <mxCell id="g48fNDkBXVpFaVi7_BF4-45" value="显示直播间结束页面" style="rounded=1;whiteSpace=wrap;html=1;" vertex="1" parent="WIyWlLk6GJQsqaUBKTNV-1">
          <mxGeometry x="214" y="1280" width="120" height="60" as="geometry" />
        </mxCell>
        <mxCell id="g48fNDkBXVpFaVi7_BF4-46" value="" style="endArrow=classic;html=1;exitX=0.5;exitY=1;exitDx=0;exitDy=0;entryX=0.5;entryY=0;entryDx=0;entryDy=0;" edge="1" parent="WIyWlLk6GJQsqaUBKTNV-1" source="g48fNDkBXVpFaVi7_BF4-39" target="g48fNDkBXVpFaVi7_BF4-45">
          <mxGeometry width="50" height="50" relative="1" as="geometry">
            <mxPoint x="344" y="1260" as="sourcePoint" />
            <mxPoint x="394" y="1210" as="targetPoint" />
          </mxGeometry>
        </mxCell>
        <mxCell id="g48fNDkBXVpFaVi7_BF4-47" value="主播结束直播" style="text;html=1;align=center;verticalAlign=middle;resizable=0;points=[];autosize=1;strokeColor=none;" vertex="1" parent="WIyWlLk6GJQsqaUBKTNV-1">
          <mxGeometry x="268" y="1220" width="90" height="20" as="geometry" />
        </mxCell>
        <mxCell id="g48fNDkBXVpFaVi7_BF4-48" value="刷新页面&lt;br&gt;观看直播" style="rounded=1;whiteSpace=wrap;html=1;" vertex="1" parent="WIyWlLk6GJQsqaUBKTNV-1">
          <mxGeometry x="714" y="1130" width="120" height="60" as="geometry" />
        </mxCell>
        <mxCell id="g48fNDkBXVpFaVi7_BF4-49" value="" style="endArrow=classic;html=1;exitX=1;exitY=0.5;exitDx=0;exitDy=0;entryX=0;entryY=0.5;entryDx=0;entryDy=0;" edge="1" parent="WIyWlLk6GJQsqaUBKTNV-1" source="g48fNDkBXVpFaVi7_BF4-42" target="g48fNDkBXVpFaVi7_BF4-48">
          <mxGeometry relative="1" as="geometry">
            <mxPoint x="474" y="1070" as="sourcePoint" />
            <mxPoint x="634" y="1070" as="targetPoint" />
          </mxGeometry>
        </mxCell>
        <mxCell id="g48fNDkBXVpFaVi7_BF4-50" value="接收到rtm刷新房间消息" style="edgeLabel;resizable=0;html=1;align=center;verticalAlign=middle;" connectable="0" vertex="1" parent="g48fNDkBXVpFaVi7_BF4-49">
          <mxGeometry relative="1" as="geometry" />
        </mxCell>
        <mxCell id="g48fNDkBXVpFaVi7_BF4-52" value="" style="endArrow=none;dashed=1;html=1;dashPattern=1 3;strokeWidth=2;exitX=0.5;exitY=1;exitDx=0;exitDy=0;" edge="1" parent="WIyWlLk6GJQsqaUBKTNV-1" source="g48fNDkBXVpFaVi7_BF4-27" target="g48fNDkBXVpFaVi7_BF4-42">
          <mxGeometry width="50" height="50" relative="1" as="geometry">
            <mxPoint x="430" y="840" as="sourcePoint" />
            <mxPoint x="480" y="790" as="targetPoint" />
          </mxGeometry>
        </mxCell>
        <mxCell id="g48fNDkBXVpFaVi7_BF4-53" value="广播rtm刷新&lt;br&gt;房间消息" style="text;html=1;align=center;verticalAlign=middle;resizable=0;points=[];autosize=1;strokeColor=none;" vertex="1" parent="WIyWlLk6GJQsqaUBKTNV-1">
          <mxGeometry x="670" y="910" width="80" height="30" as="geometry" />
        </mxCell>
        <mxCell id="g48fNDkBXVpFaVi7_BF4-56" value="嘉宾" style="rounded=1;whiteSpace=wrap;html=1;" vertex="1" parent="WIyWlLk6GJQsqaUBKTNV-1">
          <mxGeometry x="4" y="520" width="60" height="60" as="geometry" />
        </mxCell>
        <mxCell id="g48fNDkBXVpFaVi7_BF4-67" style="edgeStyle=none;rounded=0;orthogonalLoop=1;jettySize=auto;html=1;exitX=1;exitY=0.5;exitDx=0;exitDy=0;" edge="1" parent="WIyWlLk6GJQsqaUBKTNV-1" source="g48fNDkBXVpFaVi7_BF4-56" target="g48fNDkBXVpFaVi7_BF4-56">
          <mxGeometry relative="1" as="geometry" />
        </mxCell>
        <mxCell id="g48fNDkBXVpFaVi7_BF4-68" value="连麦嘉宾" style="rounded=1;whiteSpace=wrap;html=1;" vertex="1" parent="WIyWlLk6GJQsqaUBKTNV-1">
          <mxGeometry x="120" y="520" width="76" height="60" as="geometry" />
        </mxCell>
        <mxCell id="g48fNDkBXVpFaVi7_BF4-69" value="" style="endArrow=classic;html=1;exitX=1;exitY=0.5;exitDx=0;exitDy=0;entryX=0;entryY=0.5;entryDx=0;entryDy=0;" edge="1" parent="WIyWlLk6GJQsqaUBKTNV-1" source="g48fNDkBXVpFaVi7_BF4-56" target="g48fNDkBXVpFaVi7_BF4-68">
          <mxGeometry width="50" height="50" relative="1" as="geometry">
            <mxPoint x="64" y="500" as="sourcePoint" />
            <mxPoint x="114" y="450" as="targetPoint" />
          </mxGeometry>
        </mxCell>
        <mxCell id="g48fNDkBXVpFaVi7_BF4-70" value="连麦" style="text;html=1;align=center;verticalAlign=middle;resizable=0;points=[];autosize=1;strokeColor=none;" vertex="1" parent="WIyWlLk6GJQsqaUBKTNV-1">
          <mxGeometry x="54" y="530" width="40" height="20" as="geometry" />
        </mxCell>
        <mxCell id="g48fNDkBXVpFaVi7_BF4-71" value="离开坑位&amp;nbsp;&lt;br&gt;弹出结算页面" style="rounded=1;whiteSpace=wrap;html=1;" vertex="1" parent="WIyWlLk6GJQsqaUBKTNV-1">
          <mxGeometry x="274" y="520" width="120" height="60" as="geometry" />
        </mxCell>
        <mxCell id="g48fNDkBXVpFaVi7_BF4-72" value="" style="endArrow=classic;html=1;exitX=1;exitY=0.5;exitDx=0;exitDy=0;entryX=0;entryY=0.5;entryDx=0;entryDy=0;" edge="1" parent="WIyWlLk6GJQsqaUBKTNV-1" source="g48fNDkBXVpFaVi7_BF4-68" target="g48fNDkBXVpFaVi7_BF4-71">
          <mxGeometry width="50" height="50" relative="1" as="geometry">
            <mxPoint x="194" y="490" as="sourcePoint" />
            <mxPoint x="244" y="440" as="targetPoint" />
          </mxGeometry>
        </mxCell>
        <mxCell id="g48fNDkBXVpFaVi7_BF4-73" value="下麦" style="text;html=1;align=center;verticalAlign=middle;resizable=0;points=[];autosize=1;strokeColor=none;" vertex="1" parent="WIyWlLk6GJQsqaUBKTNV-1">
          <mxGeometry x="204" y="520" width="40" height="20" as="geometry" />
        </mxCell>
        <mxCell id="g48fNDkBXVpFaVi7_BF4-74" value="" style="endArrow=none;dashed=1;html=1;dashPattern=1 3;strokeWidth=2;" edge="1" parent="WIyWlLk6GJQsqaUBKTNV-1" source="g48fNDkBXVpFaVi7_BF4-73" target="g48fNDkBXVpFaVi7_BF4-23">
          <mxGeometry width="50" height="50" relative="1" as="geometry">
            <mxPoint x="420" y="540" as="sourcePoint" />
            <mxPoint x="470" y="490" as="targetPoint" />
            <Array as="points">
              <mxPoint x="300" y="490" />
              <mxPoint x="400" y="490" />
            </Array>
          </mxGeometry>
        </mxCell>
        <mxCell id="g48fNDkBXVpFaVi7_BF4-75" value="rtc回调&lt;br&gt;rejoinchannelsuccess&lt;br&gt;是否是当前房间的主播" style="rounded=1;whiteSpace=wrap;html=1;" vertex="1" parent="WIyWlLk6GJQsqaUBKTNV-1">
          <mxGeometry x="-70" y="690" width="120" height="60" as="geometry" />
        </mxCell>
        <mxCell id="g48fNDkBXVpFaVi7_BF4-76" value="连麦用户下麦" style="rounded=1;whiteSpace=wrap;html=1;" vertex="1" parent="WIyWlLk6GJQsqaUBKTNV-1">
          <mxGeometry x="94" y="690" width="120" height="60" as="geometry" />
        </mxCell>
        <mxCell id="g48fNDkBXVpFaVi7_BF4-77" value="" style="endArrow=classic;html=1;exitX=1;exitY=0.5;exitDx=0;exitDy=0;entryX=0;entryY=0.5;entryDx=0;entryDy=0;" edge="1" parent="WIyWlLk6GJQsqaUBKTNV-1" source="g48fNDkBXVpFaVi7_BF4-75" target="g48fNDkBXVpFaVi7_BF4-76">
          <mxGeometry width="50" height="50" relative="1" as="geometry">
            <mxPoint x="250" y="930" as="sourcePoint" />
            <mxPoint x="300" y="880" as="targetPoint" />
          </mxGeometry>
        </mxCell>
        <mxCell id="g48fNDkBXVpFaVi7_BF4-78" value="否" style="text;html=1;align=center;verticalAlign=middle;resizable=0;points=[];autosize=1;strokeColor=none;" vertex="1" parent="WIyWlLk6GJQsqaUBKTNV-1">
          <mxGeometry x="50" y="700" width="30" height="20" as="geometry" />
        </mxCell>
        <mxCell id="g48fNDkBXVpFaVi7_BF4-79" value="请求liveinfo 刷新页面&amp;nbsp;" style="rounded=1;whiteSpace=wrap;html=1;" vertex="1" parent="WIyWlLk6GJQsqaUBKTNV-1">
          <mxGeometry x="-70" y="810" width="120" height="60" as="geometry" />
        </mxCell>
        <mxCell id="g48fNDkBXVpFaVi7_BF4-80" value="" style="endArrow=classic;html=1;exitX=0.5;exitY=1;exitDx=0;exitDy=0;entryX=0.5;entryY=0;entryDx=0;entryDy=0;" edge="1" parent="WIyWlLk6GJQsqaUBKTNV-1" source="g48fNDkBXVpFaVi7_BF4-75" target="g48fNDkBXVpFaVi7_BF4-79">
          <mxGeometry width="50" height="50" relative="1" as="geometry">
            <mxPoint x="80" y="850" as="sourcePoint" />
            <mxPoint x="130" y="800" as="targetPoint" />
          </mxGeometry>
        </mxCell>
        <mxCell id="g48fNDkBXVpFaVi7_BF4-81" value="是" style="text;html=1;align=center;verticalAlign=middle;resizable=0;points=[];autosize=1;strokeColor=none;" vertex="1" parent="WIyWlLk6GJQsqaUBKTNV-1">
          <mxGeometry x="-6" y="770" width="30" height="20" as="geometry" />
        </mxCell>
        <mxCell id="g48fNDkBXVpFaVi7_BF4-84" value="&lt;span&gt;rtc回调&lt;/span&gt;&lt;br&gt;useroffline&lt;br&gt;离线用户是否是主播" style="rounded=1;whiteSpace=wrap;html=1;" vertex="1" parent="WIyWlLk6GJQsqaUBKTNV-1">
          <mxGeometry x="-66" y="900" width="120" height="60" as="geometry" />
        </mxCell>
        <mxCell id="g48fNDkBXVpFaVi7_BF4-85" value="主播正常下播&lt;br&gt;刷新直播房间状态&lt;br&gt;如果是连麦嘉宾就下麦" style="rounded=1;whiteSpace=wrap;html=1;" vertex="1" parent="WIyWlLk6GJQsqaUBKTNV-1">
          <mxGeometry x="120" y="900" width="140" height="60" as="geometry" />
        </mxCell>
        <mxCell id="g48fNDkBXVpFaVi7_BF4-86" value="" style="endArrow=classic;html=1;entryX=0;entryY=0.5;entryDx=0;entryDy=0;" edge="1" parent="WIyWlLk6GJQsqaUBKTNV-1" source="g48fNDkBXVpFaVi7_BF4-84" target="g48fNDkBXVpFaVi7_BF4-85">
          <mxGeometry width="50" height="50" relative="1" as="geometry">
            <mxPoint x="50" y="1000" as="sourcePoint" />
            <mxPoint x="120.71067811865476" y="950" as="targetPoint" />
          </mxGeometry>
        </mxCell>
        <mxCell id="g48fNDkBXVpFaVi7_BF4-87" value="是" style="text;html=1;align=center;verticalAlign=middle;resizable=0;points=[];autosize=1;strokeColor=none;" vertex="1" parent="WIyWlLk6GJQsqaUBKTNV-1">
          <mxGeometry x="65" y="930" width="30" height="20" as="geometry" />
        </mxCell>
        <mxCell id="g48fNDkBXVpFaVi7_BF4-88" value="判断下播用户是否是连麦主播&lt;br&gt;是就发送rtm嘉宾下麦消息&lt;br&gt;调用接口退出直播连麦" style="rounded=1;whiteSpace=wrap;html=1;" vertex="1" parent="WIyWlLk6GJQsqaUBKTNV-1">
          <mxGeometry x="-66" y="1020" width="166" height="80" as="geometry" />
        </mxCell>
        <mxCell id="g48fNDkBXVpFaVi7_BF4-89" value="" style="endArrow=classic;html=1;exitX=0.5;exitY=1;exitDx=0;exitDy=0;entryX=0.5;entryY=0;entryDx=0;entryDy=0;" edge="1" parent="WIyWlLk6GJQsqaUBKTNV-1" source="g48fNDkBXVpFaVi7_BF4-84" target="g48fNDkBXVpFaVi7_BF4-88">
          <mxGeometry width="50" height="50" relative="1" as="geometry">
            <mxPoint x="100" y="1040" as="sourcePoint" />
            <mxPoint x="150" y="990" as="targetPoint" />
          </mxGeometry>
        </mxCell>
        <mxCell id="g48fNDkBXVpFaVi7_BF4-90" value="否&lt;br&gt;且是异常下播" style="text;html=1;align=center;verticalAlign=middle;resizable=0;points=[];autosize=1;strokeColor=none;" vertex="1" parent="WIyWlLk6GJQsqaUBKTNV-1">
          <mxGeometry x="-70" y="980" width="90" height="30" as="geometry" />
        </mxCell>
      </root>
    </mxGraphModel>
  </diagram>
</mxfile>
